# xmcd
# Copyright (C) 1995-1998 Ti Kan
#
# Track frame offsets:
#       150
#       32255
#       54574
#       74667
#       91510
#       110721
#       122264
#       140325
#       156723
#       182139
#
# Disc length: 2618 seconds
#
# Revision: 0
# Processed by: cddbd v1.5.2PL0 Copyright (c) Steve Scherf et al.
# Submitted via: CD-Transfer v1.0
#
DISCID=850a380a
DTITLE=Air - Nicolas Godin, Jean-Benoit Dunkel
DYEAR=98
DGENRE=
TTITLE0=La Femme D'argent
TTITLE1=Sexy Body
TTITLE2=All I Need
TTITLE3=Kelly, Watch The Stars
TTITLE4=Talisman
TTITLE5=Remember
TTITLE6=You Make It Easy
TTITLE7=Ce Matin La
TTITLE8=New Star In The Sky (Chason Pour Solal)
TTITLE9=Le Voyage De Penelope
EXTD=
EXTT0=
EXTT1=
EXTT2=
EXTT3=
EXTT4=
EXTT5=
EXTT6=
EXTT7=
EXTT8=
EXTT9=
PLAYORDER=
